<!-- filepath: d:\Documents\Fikar\Project\portfoliov3\public\assets\disc.svg -->
<svg xmlns="http://www.w3.org/2000/svg" width="48" height="48" viewBox="0 0 32 32" fill="none">
  <path
    d="M27.313,4.687c-6.238-6.238-16.389-6.238-22.627,0C1.665,7.708,0,11.727,0,16c0,4.274,1.665,8.292,4.687,11.313
    C7.708,30.336,11.727,32,16,32s8.292-1.664,11.313-4.687C30.335,24.292,32,20.274,32,16C32,11.727,30.335,7.708,27.313,4.687z
    M13.171,26.829c-2.137,0-4.146-0.832-5.657-2.344s-2.343-3.521-2.343-5.657c0-0.553,0.448-1,1-1s1,0.447,1,1
    c0,1.603,0.624,3.109,1.757,4.243c1.134,1.134,2.641,1.758,4.243,1.758c0.552,0,1,0.447,1,1S13.724,26.829,13.171,26.829z
    M13.171,22.826c-1.07,0-2.074-0.415-2.828-1.169c-0.754-0.754-1.17-1.759-1.17-2.829c0-0.553,0.448-1,1-1s1,0.447,1,1
    c0,0.536,0.208,1.038,0.584,1.415c0.376,0.376,0.878,0.583,1.414,0.583c0.552,0,1,0.447,1,1S13.724,22.826,13.171,22.826z
    M18.828,18.828C18.073,19.584,17.068,20,16,20s-2.073-0.416-2.828-1.172C12.416,18.073,12,17.068,12,16s0.416-2.073,1.172-2.828
    c1.511-1.512,4.146-1.512,5.656,0C19.584,13.927,20,14.932,20,16S19.584,18.072,18.828,18.828z M21.827,14.171c-0.552,0-1-0.448-1-1
    c0-0.535-0.208-1.037-0.584-1.414c-0.377-0.376-0.879-0.584-1.414-0.584c-0.552,0-1-0.448-1-1s0.448-1,1-1
    c1.069,0,2.074,0.416,2.828,1.17s1.17,1.759,1.17,2.828C22.827,13.724,22.379,14.171,21.827,14.171z M25.829,14.171
    c-0.552,0-1-0.448-1-1c0-1.602-0.624-3.109-1.757-4.243c-1.134-1.133-2.641-1.757-4.243-1.757c-0.552,0-1-0.448-1-1s0.448-1,1-1
    c2.136,0,4.145,0.832,5.657,2.343c1.511,1.512,2.343,3.521,2.343,5.657C26.829,13.724,26.381,14.171,25.829,14.171z"
    fill="url(#diskGradient)"
    stroke="url(#borderGradient)"
    stroke-width="0.5"
  />
  
  <!-- Gradients that adapt to theme -->
  <defs>
    <radialGradient id="diskGradient" cx="0.3" cy="0.3">
      <stop offset="0%" stop-color="#6b7280" />
      <stop offset="50%" stop-color="#4b5563" />
      <stop offset="100%" stop-color="#374151" />
    </radialGradient>
    <linearGradient id="borderGradient" x1="0%" y1="0%" x2="100%" y2="100%">
      <stop offset="0%" stop-color="#6b7280" />
      <stop offset="100%" stop-color="#4b5563" />
    </linearGradient>
  </defs>
  
  <!-- CSS for theme adaptation -->
  <style>
    <![CDATA[
    .dark path {
      fill: url(#diskGradientDark);
      stroke: url(#borderGradientDark);
    }
    ]]>
  </style>
  
  <!-- Dark theme gradients -->
  <defs>
    <radialGradient id="diskGradientDark" cx="0.3" cy="0.3">
      <stop offset="0%" stop-color="#9ca3af" />
      <stop offset="50%" stop-color="#6b7280" />
      <stop offset="100%" stop-color="#4b5563" />
    </radialGradient>
    <linearGradient id="borderGradientDark" x1="0%" y1="0%" x2="100%" y2="100%">
      <stop offset="0%" stop-color="#9ca3af" />
      <stop offset="100%" stop-color="#6b7280" />
    </linearGradient>
  </defs>
</svg>